<?xml version="1.0" encoding="iso-8859-1"?>
<!-- Generator: Adobe Illustrator 18.0.0, SVG Export Plug-In . SVG Version: 6.00 Build 0)  -->
<!DOCTYPE svg PUBLIC "-//W3C//DTD SVG 1.1//EN" "http://www.w3.org/Graphics/SVG/1.1/DTD/svg11.dtd">
<svg version="1.1" id="Capa_1" xmlns="http://www.w3.org/2000/svg" xmlns:xlink="http://www.w3.org/1999/xlink" x="0px" y="0px"
	 viewBox="0 0 53 53" style="enable-background:new 0 0 53 53;" xml:space="preserve">
<g>
	<path d="M15.641,42.347c-0.402-0.378-1.035-0.357-1.413,0.046c-0.378,0.402-0.357,1.035,0.046,1.413
		c0.504,0.474,1.038,0.931,1.587,1.358c0.183,0.143,0.399,0.212,0.614,0.212c0.298,0,0.592-0.132,0.789-0.385
		c0.34-0.436,0.263-1.063-0.173-1.403C16.59,43.197,16.103,42.78,15.641,42.347z"/>
	<path d="M22.025,46.457c-0.587-0.241-1.169-0.512-1.729-0.805c-0.487-0.256-1.094-0.066-1.35,0.424
		c-0.255,0.489-0.065,1.094,0.424,1.35c0.613,0.32,1.251,0.617,1.895,0.881c0.124,0.052,0.253,0.075,0.38,0.075
		c0.394,0,0.767-0.233,0.925-0.62C22.78,47.25,22.536,46.667,22.025,46.457z"/>
	<path d="M12.042,37.915c-0.287-0.471-0.901-0.621-1.374-0.335c-0.472,0.287-0.622,0.902-0.335,1.374
		c0.361,0.595,0.754,1.179,1.166,1.735c0.196,0.265,0.498,0.404,0.805,0.404c0.207,0,0.415-0.063,0.595-0.196
		c0.443-0.329,0.536-0.955,0.208-1.399C12.73,38.99,12.372,38.458,12.042,37.915z"/>
	<path d="M27.551,47.882c-0.632-0.074-1.266-0.178-1.884-0.307c-0.538-0.112-1.07,0.231-1.184,0.773
		c-0.113,0.54,0.232,1.07,0.773,1.184c0.676,0.142,1.37,0.255,2.062,0.336c0.039,0.005,0.078,0.007,0.117,0.007
		c0.501,0,0.933-0.375,0.992-0.884C28.492,48.443,28.1,47.947,27.551,47.882z"/>
	<path d="M10.367,34.49c-0.226-0.591-0.427-1.2-0.597-1.811c-0.148-0.532-0.7-0.845-1.231-0.694
		c-0.531,0.147-0.843,0.699-0.694,1.231c0.186,0.669,0.406,1.338,0.653,1.986c0.152,0.398,0.532,0.644,0.935,0.644
		c0.119,0,0.239-0.021,0.356-0.065C10.306,35.583,10.563,35.005,10.367,34.49z"/>
	<path d="M51.175,33.092c-0.522-0.174-1.09,0.107-1.267,0.63c-0.201,0.6-0.434,1.197-0.689,1.776
		c-0.223,0.505,0.006,1.096,0.511,1.319c0.132,0.058,0.269,0.085,0.403,0.085c0.384,0,0.75-0.222,0.916-0.596
		c0.28-0.635,0.534-1.29,0.756-1.948C51.98,33.835,51.698,33.268,51.175,33.092z"/>
	<path d="M52.024,27.167c-0.581-0.035-1.022,0.396-1.052,0.946c-0.033,0.64-0.095,1.278-0.185,1.9
		c-0.078,0.547,0.302,1.053,0.849,1.132c0.048,0.007,0.096,0.01,0.143,0.01c0.489,0,0.917-0.359,0.989-0.858
		c0.098-0.681,0.165-1.38,0.202-2.078C52.999,27.667,52.575,27.197,52.024,27.167z"/>
	<path d="M47.369,38.831c-0.355,0.522-0.741,1.035-1.146,1.526c-0.351,0.427-0.289,1.057,0.137,1.408
		c0.187,0.153,0.411,0.228,0.635,0.228c0.289,0,0.575-0.124,0.773-0.364c0.442-0.538,0.864-1.1,1.253-1.671
		c0.312-0.457,0.193-1.079-0.263-1.39C48.303,38.258,47.68,38.375,47.369,38.831z"/>
	<path d="M43.544,43.073c-0.485,0.41-0.994,0.802-1.511,1.163c-0.453,0.316-0.563,0.94-0.246,1.393
		c0.194,0.278,0.505,0.427,0.82,0.427c0.198,0,0.398-0.059,0.572-0.181c0.566-0.396,1.123-0.825,1.655-1.274
		c0.422-0.355,0.475-0.986,0.118-1.409C44.598,42.77,43.969,42.714,43.544,43.073z"/>
	<path d="M38.726,46.13c-0.583,0.266-1.179,0.506-1.771,0.714c-0.521,0.183-0.795,0.753-0.612,1.274
		c0.145,0.412,0.53,0.669,0.943,0.669c0.109,0,0.222-0.018,0.331-0.057c0.647-0.227,1.3-0.489,1.938-0.78
		c0.502-0.229,0.724-0.822,0.495-1.325C39.821,46.123,39.229,45.9,38.726,46.13z"/>
	<path d="M33.261,47.771c-0.628,0.098-1.266,0.168-1.897,0.208c-0.552,0.035-0.97,0.511-0.935,1.062
		c0.034,0.53,0.474,0.937,0.997,0.937c0.021,0,0.043-0.001,0.064-0.002c0.692-0.044,1.391-0.121,2.077-0.228
		c0.546-0.085,0.92-0.596,0.835-1.142S33.809,47.689,33.261,47.771z"/>
	<path d="M51,26.023c0,0.553,0.447,1,1,1s1-0.447,1-1c0-12.683-10.317-23-23-23c-11.907,0-21.728,9.094-22.885,20.701l-5.408-5.408
		c-0.391-0.391-1.023-0.391-1.414,0s-0.391,1.023,0,1.414l6.833,6.833C7.052,26.702,7,26.854,7,27.023
		c0,0.697,0.031,1.398,0.094,2.086c0.047,0.52,0.483,0.91,0.995,0.91c0.03,0,0.061-0.001,0.091-0.004
		c0.551-0.05,0.956-0.536,0.906-1.086C9.029,28.301,9,27.66,9,27.023c0-0.169-0.052-0.321-0.126-0.46l6.833-6.833
		c0.391-0.391,0.391-1.023,0-1.414s-1.023-0.391-1.414,0l-5.116,5.116C10.46,13.073,19.3,5.023,30,5.023
		C41.579,5.023,51,14.444,51,26.023z"/>
</g>
<g>
</g>
<g>
</g>
<g>
</g>
<g>
</g>
<g>
</g>
<g>
</g>
<g>
</g>
<g>
</g>
<g>
</g>
<g>
</g>
<g>
</g>
<g>
</g>
<g>
</g>
<g>
</g>
<g>
</g>
</svg>
