<?xml version="1.0" encoding="iso-8859-1"?>
<!-- Generator: Adobe Illustrator 19.0.0, SVG Export Plug-In . SVG Version: 6.00 Build 0)  -->
<svg version="1.1" id="Capa_1" xmlns="http://www.w3.org/2000/svg" xmlns:xlink="http://www.w3.org/1999/xlink" x="0px" y="0px"
	 viewBox="0 0 490 490" style="enable-background:new 0 0 490 490;" xml:space="preserve">
<path d="M471.81,139.723L350.419,18.319c-20.258-20.885-60.246-27.728-87.97,0L18.43,262.374c-30.191,30.195-18.238,72.809,0,87.981
	l121.386,121.408c23.656,23.659,63.017,24.962,87.975,0L471.81,227.71C496.063,203.448,496.063,163.979,471.81,139.723z
	 M213.053,457.025c-15.633,15.624-42.878,15.624-58.5,0L33.166,335.616c-16.126-16.128-16.126-42.375,0-58.503l114.642-114.658
	l179.887,179.912L213.053,457.025z M457.073,212.97L342.432,327.628L162.545,147.716L277.186,33.059
	c16.693-16.695,42.962-15.535,58.495,0l121.391,121.403C473.199,170.591,473.199,196.837,457.073,212.97z"/>
<g>
</g>
<g>
</g>
<g>
</g>
<g>
</g>
<g>
</g>
<g>
</g>
<g>
</g>
<g>
</g>
<g>
</g>
<g>
</g>
<g>
</g>
<g>
</g>
<g>
</g>
<g>
</g>
<g>
</g>
</svg>
