<?xml version="1.0" encoding="iso-8859-1"?>
<!-- Generator: Adobe Illustrator 19.1.0, SVG Export Plug-In . SVG Version: 6.00 Build 0)  -->
<svg version="1.1" id="Capa_1" xmlns="http://www.w3.org/2000/svg" xmlns:xlink="http://www.w3.org/1999/xlink" x="0px" y="0px"
	 viewBox="0 0 67.171 67.171" style="enable-background:new 0 0 67.171 67.171;" xml:space="preserve">
<g>
	<g>
		<path d="M54.908,20.498c-0.781-0.781-2.047-0.781-2.828,0s-0.781,1.856,0,2.638l8.119,7.927h-25.15V6.792l8.547,8.298
			c0.39,0.391,1.027,0.586,1.539,0.586s1.086-0.195,1.477-0.586c0.781-0.78,0.812-2.047,0.031-2.828L34.985,0.586
			C34.61,0.211,34.11,0,33.579,0c-0.53,0-1.035,0.211-1.41,0.586L20.495,12.261c-0.781,0.781-0.78,2.047,0.001,2.828
			s1.798,0.781,2.579,0l7.975-8.224v24.198H6.971l8.118-7.928c0.781-0.781,0.781-1.952,0-2.733s-2.048-0.734-2.828,0.047
			L0.586,32.148C0.211,32.523,0,33.044,0,33.574s0.211,1.045,0.586,1.42L12.261,46.67c0.391,0.391,0.902,0.587,1.414,0.587
			s1.024-0.194,1.415-0.585c0.781-0.781,0.781-2.237,0-3.018l-8.403-8.591h24.362v25.242l-7.974-8.224
			c-0.781-0.781-1.923-0.781-2.703,0c-0.781,0.781-0.719,2.047,0.062,2.828l11.707,11.675c0.375,0.375,0.899,0.586,1.43,0.586
			c0.531,0,1.047-0.211,1.422-0.586L46.671,54.91c0.781-0.781,0.783-2.048,0.002-2.828c-0.781-0.781-2.298-0.781-3.077,0
			l-8.547,8.298V35.063h25.435l-8.403,8.592c-0.781,0.78-0.781,2.143,0,2.924c0.391,0.391,0.902,0.633,1.414,0.633
			s1.023-0.171,1.414-0.562L66.585,34.99c0.375-0.375,0.586-0.878,0.586-1.408s-0.211-1.036-0.586-1.411L54.908,20.498z"/>
	</g>
</g>
<g>
</g>
<g>
</g>
<g>
</g>
<g>
</g>
<g>
</g>
<g>
</g>
<g>
</g>
<g>
</g>
<g>
</g>
<g>
</g>
<g>
</g>
<g>
</g>
<g>
</g>
<g>
</g>
<g>
</g>
</svg>
