<?xml version="1.0" encoding="iso-8859-1"?>
<!-- Generator: Adobe Illustrator 19.0.0, SVG Export Plug-In . SVG Version: 6.00 Build 0)  -->
<svg version="1.1" id="Capa_1" xmlns="http://www.w3.org/2000/svg" xmlns:xlink="http://www.w3.org/1999/xlink" x="0px" y="0px"
	 viewBox="0 0 490 490" style="enable-background:new 0 0 490 490;" xml:space="preserve">
<path d="M474.109,16.126c-10.263-10.257-41.555-30.482-76.841,0c0,0-92.633,92.608-92.867,92.912l-74.466,93.277l-14.97-14.963
	c-30.899-30.11-74.168-21.981-94.333,0l-45.288,45.265c-4.073,4.071-4.073,10.666,0,14.736l5.417,5.414L3.054,330.44
	c-4.072,4.072-4.072,10.666,0,14.736L144.895,486.94c4.899,5.172,12.185,2.821,14.743,0l77.707-77.667l5.416,5.414
	c3.922,4.343,11.363,3.826,14.743,0l45.288-45.26c22-20.409,29.505-66.45,0-94.292l-14.965-14.958l93.323-74.428
	c0.305-0.245,92.958-92.82,92.958-92.82C495.297,71.757,495.297,37.3,474.109,16.126z M151.684,323.655l-70.338,70.299L60.63,373.25
	l70.334-70.304L151.684,323.655z M166.427,338.391l20.712,20.702l-70.333,70.303L96.089,408.69L166.427,338.391z M95.504,267.503
	l20.718,20.707l-70.335,70.304l-20.717-20.706L95.504,267.503z M152.267,464.837l-20.718-20.707l70.334-70.302l20.719,20.709
	L152.267,464.837z M288.05,354.691l-37.916,37.892L97.459,239.986l37.917-37.898c10.885-12.397,40.731-22.864,64.847,0
	l87.827,87.784C312.142,314.353,298.738,345.44,288.05,354.691z M459.367,78.194l-91.686,91.63l-94.689,75.52l-26.502-26.483
	l-1.722-1.721l75.569-94.647l91.676-91.63c12.645-12.659,34.709-12.65,47.355,0C472.419,43.913,472.419,65.142,459.367,78.194z"/>
<g>
</g>
<g>
</g>
<g>
</g>
<g>
</g>
<g>
</g>
<g>
</g>
<g>
</g>
<g>
</g>
<g>
</g>
<g>
</g>
<g>
</g>
<g>
</g>
<g>
</g>
<g>
</g>
<g>
</g>
</svg>
