<?xml version="1.0" encoding="iso-8859-1"?>
<!-- Generator: Adobe Illustrator 19.0.0, SVG Export Plug-In . SVG Version: 6.00 Build 0)  -->
<svg version="1.1" id="Capa_1" xmlns="http://www.w3.org/2000/svg" xmlns:xlink="http://www.w3.org/1999/xlink" x="0px" y="0px"
	 viewBox="0 0 490 490" style="enable-background:new 0 0 490 490;" xml:space="preserve">
<path d="M490,386.372L314.958,226.616c-0.538-25.975-9.479-108.32-101.239-140.976c-21.267-7.569-89.341-15.766-101.126-17.344
	C41.186,58.73,28.115,0,28.115,0s-60.99,124.601-3.312,235.919C75.58,333.915,168.58,345.27,200.544,346.275L398.819,490
	L490,386.372z M42.957,226.357C13.05,176.652,16.747,105.063,32.355,50.166c21.506,24.065,55.501,33.865,76.32,37.748
	c12.419,2.316,79.497,8.598,98.077,16.544c81.663,34.921,87.785,102.053,87.688,123.192l-86.808,98.654
	C184.999,325.717,97.957,317.768,42.957,226.357z M224.129,338.396l81.59-92.733l36.764,33.555l-77.876,88.519L224.129,338.396z
	 M281.172,379.746l76.357-86.794l103.998,94.921l-65.859,74.871L281.172,379.746z"/>
<g>
</g>
<g>
</g>
<g>
</g>
<g>
</g>
<g>
</g>
<g>
</g>
<g>
</g>
<g>
</g>
<g>
</g>
<g>
</g>
<g>
</g>
<g>
</g>
<g>
</g>
<g>
</g>
<g>
</g>
</svg>
