<?xml version="1.0" encoding="iso-8859-1"?>
<!-- Generator: Adobe Illustrator 19.0.0, SVG Export Plug-In . SVG Version: 6.00 Build 0)  -->
<svg version="1.1" id="Capa_1" xmlns="http://www.w3.org/2000/svg" xmlns:xlink="http://www.w3.org/1999/xlink" x="0px" y="0px"
	 viewBox="0 0 490.329 490.329" style="enable-background:new 0 0 490.329 490.329;" xml:space="preserve">
<path d="M480.212,14.268c-12.557-14.467-34.23-18.786-51.345-8.332c-0.509,0.311-227.758,199.791-227.758,199.791
	c-0.028,0.03-65.386,66.918-65.386,66.918c-38.978,5.313-82.359,39.289-90.122,89.439c-4.707,30.471-16.761,74.051-43.583,111.412
	c-4.77,6.644-0.715,16.385,8.364,16.667c0.285,0.009,0.581-0.01,0.876-0.035c5.206-0.444,127.977-11.257,169.277-53.531
	c18.582-19.011,31.015-42.959,35.244-67.304c1.116-0.525,73.282-74.04,73.282-74.04c0.026-0.025,195.05-232.625,195.331-233.138
	C499.172,35.108,481.916,16.232,480.212,14.268z M165.62,422.018c-24.654,25.225-92.595,39.171-134.181,44.831
	c20.996-35.539,30.491-73.834,34.78-101.575c5.787-37.394,37.378-64.259,66.526-70.906l63.367,64.835
	C193.92,381.593,182.968,404.261,165.62,422.018z M211.341,344.939l-58.548-59.914l55.899-57.213l58.549,59.918L211.341,344.939z
	 M466.775,50.879l-185.536,221.32l-57.397-58.732L440.47,23.311c9.444-5.364,20.896-1.507,26.213,7.778
	C468.792,34.757,471.533,42.122,466.775,50.879z"/>
<g>
</g>
<g>
</g>
<g>
</g>
<g>
</g>
<g>
</g>
<g>
</g>
<g>
</g>
<g>
</g>
<g>
</g>
<g>
</g>
<g>
</g>
<g>
</g>
<g>
</g>
<g>
</g>
<g>
</g>
</svg>
