<?xml version="1.0" encoding="iso-8859-1"?>
<!-- Generator: Adobe Illustrator 19.0.0, SVG Export Plug-In . SVG Version: 6.00 Build 0)  -->
<svg version="1.1" id="Capa_1" xmlns="http://www.w3.org/2000/svg" xmlns:xlink="http://www.w3.org/1999/xlink" x="0px" y="0px"
	 viewBox="0 0 490 490" style="enable-background:new 0 0 490 490;" xml:space="preserve">
<path d="M468.786,39.773c-25.966-26.137-72.818-27.007-99.649,0l-21.585,20.72l-22.378-21.478l24.83-23.837L335.628,0
	L169.362,159.602l14.377,15.178L310.08,53.506l22.377,21.476L90.363,307.375c-0.815,0.782-1.471,1.687-1.988,2.662l-0.017-0.009
	L1.225,474.576c-2.116,3.994-1.444,8.91,1.664,12.187c2.01,2.109,4.751,3.237,7.534,3.237c1.516,0,3.042-0.339,4.477-1.025
	l172.406-82.699l-0.003-0.006c0.984-0.472,1.903-1.092,2.709-1.868l278.775-267.597C501.119,104.26,492.714,63.858,468.786,39.773z
	 M102.212,328.46c30.15,13.124,52.459,34.245,66.689,63.418L34.49,456.346L102.212,328.46z M185.957,379.311
	c-15.358-29.875-39.38-53.02-69.929-67.593L345.779,91.173c32.575,13.517,56.249,36.07,70.443,67.11L185.957,379.311z
	 M454.409,121.627l-22.374,21.476c-15.276-29.717-39.167-52.791-69.953-67.58l21.431-20.572c31.303-26.42,61.453-9.064,70.896,0
	C463.714,63.886,481.856,93.015,454.409,121.627z"/>
<g>
</g>
<g>
</g>
<g>
</g>
<g>
</g>
<g>
</g>
<g>
</g>
<g>
</g>
<g>
</g>
<g>
</g>
<g>
</g>
<g>
</g>
<g>
</g>
<g>
</g>
<g>
</g>
<g>
</g>
</svg>
