<?xml version="1.0" encoding="iso-8859-1"?>
<!-- Generator: Adobe Illustrator 19.0.0, SVG Export Plug-In . SVG Version: 6.00 Build 0)  -->
<svg version="1.1" id="Capa_1" xmlns="http://www.w3.org/2000/svg" xmlns:xlink="http://www.w3.org/1999/xlink" x="0px" y="0px"
	 viewBox="0 0 490 490" style="enable-background:new 0 0 490 490;" xml:space="preserve">
<path d="M489.518,100.216c-13.392-42.348-44.773-72.818-88.352-85.799c-3.652-1.091-7.619-0.127-10.359,2.53l-18.888,18.329
	L335.572,0L215.067,116.943l14.683,14.86L335.572,29.108l21.349,20.721L227.726,175.201c-5.65,6.606-2.749,12.178,0.641,15.168
	L59.442,354.297c-9.513,9.429-9.997,19.805-7.631,26.782l-43.27,41.993l22.557,21.891L0,475.141L14.683,490l31.412-30.48
	l22.558,21.893l43.25-41.967c8.016,2.834,18.726,1.382,27.303-7.12l169.151-164.151c4.308,5.325,12.152,4.282,15.411,0.837
	l163.081-158.255C489.667,108.025,490.701,103.947,489.518,100.216z M68.653,452.304l-30.12-29.231l26.923-26.127l30.12,29.231
	L68.653,452.304z M124.523,417.467c-1.896,1.843-3.924,2.493-5.083,2.493l-0.066,0.203l-47.719-46.136
	c-0.128-0.513,0.231-2.697,2.465-4.865l175.079-169.899c2.712,1.277,5.346,2.649,7.906,4.107
	c18.155,10.591,32.222,25.883,42.027,44.649L124.523,417.467z M320.531,243.043c-13.29-29.267-36.171-51.545-66.245-64.505
	l146.654-142.32c31.668,11.117,54.974,33.65,66.495,64.271L320.531,243.043z"/>
<g>
</g>
<g>
</g>
<g>
</g>
<g>
</g>
<g>
</g>
<g>
</g>
<g>
</g>
<g>
</g>
<g>
</g>
<g>
</g>
<g>
</g>
<g>
</g>
<g>
</g>
<g>
</g>
<g>
</g>
</svg>
