<?xml version="1.0" encoding="iso-8859-1"?>
<!-- Generator: Adobe Illustrator 19.1.0, SVG Export Plug-In . SVG Version: 6.00 Build 0)  -->
<svg version="1.1" id="Capa_1" xmlns="http://www.w3.org/2000/svg" xmlns:xlink="http://www.w3.org/1999/xlink" x="0px" y="0px"
	 viewBox="0 0 64 64" style="enable-background:new 0 0 64 64;" xml:space="preserve">
<g>
	<g>
		<path d="M33,2c7.746,0,15.028,3.017,20.505,8.494c10.138,10.137,11.31,26.396,2.74,37.849L52,52.589V44h-2v11l1,1h11v-2h-8.582
			l4.292-4.293l0.092-0.106c9.211-12.247,7.972-29.667-2.883-40.521C49.064,3.225,41.28,0,33,0V2z"/>
		<path d="M7.755,15.657L12,11.411V20h2V9l-1-1H2v2h8.582L6.29,14.293l-0.092,0.106C-3.013,26.646-1.773,44.066,9.081,54.92
			C14.936,60.775,22.72,64,31,64v-2c-7.746,0-15.028-3.017-20.505-8.494C0.357,43.369-0.814,27.11,7.755,15.657z"/>
	</g>
</g>
<g>
</g>
<g>
</g>
<g>
</g>
<g>
</g>
<g>
</g>
<g>
</g>
<g>
</g>
<g>
</g>
<g>
</g>
<g>
</g>
<g>
</g>
<g>
</g>
<g>
</g>
<g>
</g>
<g>
</g>
</svg>
