<?xml version="1.0" encoding="iso-8859-1"?>
<!-- Generator: Adobe Illustrator 18.0.0, SVG Export Plug-In . SVG Version: 6.00 Build 0)  -->
<!DOCTYPE svg PUBLIC "-//W3C//DTD SVG 1.1//EN" "http://www.w3.org/Graphics/SVG/1.1/DTD/svg11.dtd">
<svg version="1.1" id="Capa_1" xmlns="http://www.w3.org/2000/svg" xmlns:xlink="http://www.w3.org/1999/xlink" x="0px" y="0px"
	 viewBox="0 0 60 60" style="enable-background:new 0 0 60 60;" xml:space="preserve">
<g>
	<path d="M59,57.5c-0.405,0-0.755,0.241-0.912,0.588C57.741,58.245,57.5,58.595,57.5,59c0,0.553,0.447,1,1,1H60v-1.5
		C60,57.947,59.553,57.5,59,57.5z"/>
	<path d="M6.331,58H5.364c-0.553,0-1,0.447-1,1s0.447,1,1,1h0.967c0.553,0,1-0.447,1-1S6.884,58,6.331,58z"/>
	<path d="M44.975,58h-0.966c-0.553,0-1,0.447-1,1s0.447,1,1,1h0.966c0.553,0,1-0.447,1-1S45.527,58,44.975,58z"/>
	<path d="M40.145,58h-0.967c-0.553,0-1,0.447-1,1s0.447,1,1,1h0.967c0.553,0,1-0.447,1-1S40.697,58,40.145,58z"/>
	<path d="M20.822,58h-0.966c-0.553,0-1,0.447-1,1s0.447,1,1,1h0.966c0.553,0,1-0.447,1-1S21.375,58,20.822,58z"/>
	<path d="M11.161,58h-0.966c-0.553,0-1,0.447-1,1s0.447,1,1,1h0.966c0.553,0,1-0.447,1-1S11.714,58,11.161,58z"/>
	<path d="M49.806,58h-0.967c-0.553,0-1,0.447-1,1s0.447,1,1,1h0.967c0.553,0,1-0.447,1-1S50.358,58,49.806,58z"/>
	<path d="M54.636,58H53.67c-0.553,0-1,0.447-1,1s0.447,1,1,1h0.966c0.553,0,1-0.447,1-1S55.188,58,54.636,58z"/>
	<path d="M25.652,58h-0.966c-0.553,0-1,0.447-1,1s0.447,1,1,1h0.966c0.553,0,1-0.447,1-1S26.205,58,25.652,58z"/>
	<path d="M35.313,58h-0.966c-0.553,0-1,0.447-1,1s0.447,1,1,1h0.966c0.553,0,1-0.447,1-1S35.866,58,35.313,58z"/>
	<path d="M15.991,58h-0.966c-0.553,0-1,0.447-1,1s0.447,1,1,1h0.966c0.553,0,1-0.447,1-1S16.544,58,15.991,58z"/>
	<path d="M30.483,58h-0.966c-0.553,0-1,0.447-1,1s0.447,1,1,1h0.966c0.553,0,1-0.447,1-1S31.036,58,30.483,58z"/>
	<path d="M1.912,58.088C1.755,57.741,1.405,57.5,1,57.5c-0.553,0-1,0.447-1,1V60h1.5c0.553,0,1-0.447,1-1
		C2.5,58.595,2.259,58.245,1.912,58.088z"/>
	<path d="M1,45.975c0.553,0,1-0.447,1-1v-0.966c0-0.553-0.447-1-1-1s-1,0.447-1,1v0.966C0,45.527,0.447,45.975,1,45.975z"/>
	<path d="M1,31.483c0.553,0,1-0.447,1-1v-0.966c0-0.553-0.447-1-1-1s-1,0.447-1,1v0.966C0,31.036,0.447,31.483,1,31.483z"/>
	<path d="M1,16.991c0.553,0,1-0.447,1-1v-0.966c0-0.553-0.447-1-1-1s-1,0.447-1,1v0.966C0,16.544,0.447,16.991,1,16.991z"/>
	<path d="M1,7.331c0.553,0,1-0.447,1-1V5.364c0-0.553-0.447-1-1-1s-1,0.447-1,1v0.967C0,6.884,0.447,7.331,1,7.331z"/>
	<path d="M1,55.636c0.553,0,1-0.447,1-1V53.67c0-0.553-0.447-1-1-1s-1,0.447-1,1v0.966C0,55.188,0.447,55.636,1,55.636z"/>
	<path d="M1,21.822c0.553,0,1-0.447,1-1v-0.966c0-0.553-0.447-1-1-1s-1,0.447-1,1v0.966C0,21.375,0.447,21.822,1,21.822z"/>
	<path d="M1,50.806c0.553,0,1-0.447,1-1v-0.967c0-0.553-0.447-1-1-1s-1,0.447-1,1v0.967C0,50.358,0.447,50.806,1,50.806z"/>
	<path d="M1,12.161c0.553,0,1-0.447,1-1v-0.966c0-0.553-0.447-1-1-1s-1,0.447-1,1v0.966C0,11.714,0.447,12.161,1,12.161z"/>
	<path d="M1,41.145c0.553,0,1-0.447,1-1v-0.967c0-0.553-0.447-1-1-1s-1,0.447-1,1v0.967C0,40.697,0.447,41.145,1,41.145z"/>
	<path d="M1,36.313c0.553,0,1-0.447,1-1v-0.966c0-0.553-0.447-1-1-1s-1,0.447-1,1v0.966C0,35.866,0.447,36.313,1,36.313z"/>
	<path d="M1,26.652c0.553,0,1-0.447,1-1v-0.966c0-0.553-0.447-1-1-1s-1,0.447-1,1v0.966C0,26.205,0.447,26.652,1,26.652z"/>
	<path d="M1.5,0H0v1.5c0,0.553,0.447,1,1,1c0.405,0,0.755-0.241,0.912-0.588C2.259,1.755,2.5,1.405,2.5,1C2.5,0.447,2.053,0,1.5,0z"
		/>
	<path d="M15.991,0h-0.966c-0.553,0-1,0.447-1,1s0.447,1,1,1h0.966c0.553,0,1-0.447,1-1S16.544,0,15.991,0z"/>
	<path d="M11.161,0h-0.967c-0.553,0-1,0.447-1,1s0.447,1,1,1h0.967c0.553,0,1-0.447,1-1S11.714,0,11.161,0z"/>
	<path d="M25.652,0h-0.966c-0.553,0-1,0.447-1,1s0.447,1,1,1h0.966c0.553,0,1-0.447,1-1S26.205,0,25.652,0z"/>
	<path d="M39.178,2h0.966c0.553,0,1-0.447,1-1s-0.447-1-1-1h-0.966c-0.553,0-1,0.447-1,1S38.625,2,39.178,2z"/>
	<path d="M20.822,0h-0.967c-0.553,0-1,0.447-1,1s0.447,1,1,1h0.967c0.553,0,1-0.447,1-1S21.375,0,20.822,0z"/>
	<path d="M48.839,2h0.966c0.553,0,1-0.447,1-1s-0.447-1-1-1h-0.966c-0.553,0-1,0.447-1,1S48.286,2,48.839,2z"/>
	<path d="M54.636,0h-0.967c-0.553,0-1,0.447-1,1s0.447,1,1,1h0.967c0.553,0,1-0.447,1-1S55.188,0,54.636,0z"/>
	<path d="M5.364,2H6.33c0.553,0,1-0.447,1-1s-0.447-1-1-1H5.364c-0.553,0-1,0.447-1,1S4.812,2,5.364,2z"/>
	<path d="M44.975,0h-0.966c-0.553,0-1,0.447-1,1s0.447,1,1,1h0.966c0.553,0,1-0.447,1-1S45.527,0,44.975,0z"/>
	<path d="M29.517,2h0.966c0.553,0,1-0.447,1-1s-0.447-1-1-1h-0.966c-0.553,0-1,0.447-1,1S28.964,2,29.517,2z"/>
	<path d="M35.313,0h-0.966c-0.553,0-1,0.447-1,1s0.447,1,1,1h0.966c0.553,0,1-0.447,1-1S35.866,0,35.313,0z"/>
	<path d="M58.5,0c-0.553,0-1,0.447-1,1c0,0.405,0.241,0.755,0.588,0.912C58.245,2.259,58.595,2.5,59,2.5c0.553,0,1-0.447,1-1V0H58.5
		z"/>
	<path d="M59,14.025c-0.553,0-1,0.447-1,1v0.966c0,0.553,0.447,1,1,1s1-0.447,1-1v-0.966C60,14.473,59.553,14.025,59,14.025z"/>
	<path d="M59,23.687c-0.553,0-1,0.447-1,1v0.966c0,0.553,0.447,1,1,1s1-0.447,1-1v-0.966C60,24.134,59.553,23.687,59,23.687z"/>
	<path d="M59,18.855c-0.553,0-1,0.447-1,1v0.967c0,0.553,0.447,1,1,1s1-0.447,1-1v-0.967C60,19.303,59.553,18.855,59,18.855z"/>
	<path d="M59,9.194c-0.553,0-1,0.447-1,1v0.967c0,0.553,0.447,1,1,1s1-0.447,1-1v-0.967C60,9.642,59.553,9.194,59,9.194z"/>
	<path d="M59,4.364c-0.553,0-1,0.447-1,1V6.33c0,0.553,0.447,1,1,1s1-0.447,1-1V5.364C60,4.812,59.553,4.364,59,4.364z"/>
	<path d="M59,43.009c-0.553,0-1,0.447-1,1v0.966c0,0.553,0.447,1,1,1s1-0.447,1-1v-0.966C60,43.456,59.553,43.009,59,43.009z"/>
	<path d="M59,52.669c-0.553,0-1,0.447-1,1v0.967c0,0.553,0.447,1,1,1s1-0.447,1-1v-0.967C60,53.116,59.553,52.669,59,52.669z"/>
	<path d="M59,47.839c-0.553,0-1,0.447-1,1v0.966c0,0.553,0.447,1,1,1s1-0.447,1-1v-0.966C60,48.286,59.553,47.839,59,47.839z"/>
	<path d="M59,28.517c-0.553,0-1,0.447-1,1v0.966c0,0.553,0.447,1,1,1s1-0.447,1-1v-0.966C60,28.964,59.553,28.517,59,28.517z"/>
	<path d="M59,33.348c-0.553,0-1,0.447-1,1v0.966c0,0.553,0.447,1,1,1s1-0.447,1-1v-0.966C60,33.795,59.553,33.348,59,33.348z"/>
	<path d="M59,38.178c-0.553,0-1,0.447-1,1v0.966c0,0.553,0.447,1,1,1s1-0.447,1-1v-0.966C60,38.625,59.553,38.178,59,38.178z"/>
</g>
<g>
</g>
<g>
</g>
<g>
</g>
<g>
</g>
<g>
</g>
<g>
</g>
<g>
</g>
<g>
</g>
<g>
</g>
<g>
</g>
<g>
</g>
<g>
</g>
<g>
</g>
<g>
</g>
<g>
</g>
</svg>
