<?xml version="1.0" encoding="iso-8859-1"?>
<!-- Generator: Adobe Illustrator 18.0.0, SVG Export Plug-In . SVG Version: 6.00 Build 0)  -->
<!DOCTYPE svg PUBLIC "-//W3C//DTD SVG 1.1//EN" "http://www.w3.org/Graphics/SVG/1.1/DTD/svg11.dtd">
<svg version="1.1" id="Capa_1" xmlns="http://www.w3.org/2000/svg" xmlns:xlink="http://www.w3.org/1999/xlink" x="0px" y="0px"
	 viewBox="0 0 60 60" style="enable-background:new 0 0 60 60;" xml:space="preserve">
<g>
	<path d="M52,0v3c-0.553,0-1,0.447-1,1s0.447,1,1,1v3h3c0,0.553,0.447,1,1,1s1-0.447,1-1h3V0H52z M58,6h-4V2h4V6z"/>
	<path d="M5,22c0-0.553-0.447-1-1-1s-1,0.447-1,1v1c0,0.553,0.447,1,1,1s1-0.447,1-1V22z"/>
	<path d="M4,46c-0.553,0-1,0.447-1,1v1c0,0.553,0.447,1,1,1s1-0.447,1-1v-1C5,46.447,4.553,46,4,46z"/>
	<path d="M5,12c0-0.553-0.447-1-1-1s-1,0.447-1,1v1c0,0.553,0.447,1,1,1s1-0.447,1-1V12z"/>
	<path d="M5,27c0-0.553-0.447-1-1-1s-1,0.447-1,1v1c0,0.553,0.447,1,1,1s1-0.447,1-1V27z"/>
	<path d="M4,9c0.553,0,1-0.447,1-1h3V5c0.553,0,1-0.447,1-1S8.553,3,8,3V0H0v8h3C3,8.553,3.447,9,4,9z M2,6V2h4v4H2z"/>
	<path d="M5,42c0-0.553-0.447-1-1-1s-1,0.447-1,1v1c0,0.553,0.447,1,1,1s1-0.447,1-1V42z"/>
	<path d="M5,32c0-0.553-0.447-1-1-1s-1,0.447-1,1v1c0,0.553,0.447,1,1,1s1-0.447,1-1V32z"/>
	<path d="M5,37c0-0.553-0.447-1-1-1s-1,0.447-1,1v1c0,0.553,0.447,1,1,1s1-0.447,1-1V37z"/>
	<path d="M5,17c0-0.553-0.447-1-1-1s-1,0.447-1,1v1c0,0.553,0.447,1,1,1s1-0.447,1-1V17z"/>
	<path d="M22,5h1c0.553,0,1-0.447,1-1s-0.447-1-1-1h-1c-0.553,0-1,0.447-1,1S21.447,5,22,5z"/>
	<path d="M12,5h1c0.553,0,1-0.447,1-1s-0.447-1-1-1h-1c-0.553,0-1,0.447-1,1S11.447,5,12,5z"/>
	<path d="M17,5h1c0.553,0,1-0.447,1-1s-0.447-1-1-1h-1c-0.553,0-1,0.447-1,1S16.447,5,17,5z"/>
	<path d="M27,5h1c0.553,0,1-0.447,1-1s-0.447-1-1-1h-1c-0.553,0-1,0.447-1,1S26.447,5,27,5z"/>
	<path d="M32,5h1c0.553,0,1-0.447,1-1s-0.447-1-1-1h-1c-0.553,0-1,0.447-1,1S31.447,5,32,5z"/>
	<path d="M47,5h1c0.553,0,1-0.447,1-1s-0.447-1-1-1h-1c-0.553,0-1,0.447-1,1S46.447,5,47,5z"/>
	<path d="M37,5h1c0.553,0,1-0.447,1-1s-0.447-1-1-1h-1c-0.553,0-1,0.447-1,1S36.447,5,37,5z"/>
	<path d="M42,5h1c0.553,0,1-0.447,1-1s-0.447-1-1-1h-1c-0.553,0-1,0.447-1,1S41.447,5,42,5z"/>
	<path d="M56,14c0.553,0,1-0.447,1-1v-1c0-0.553-0.447-1-1-1s-1,0.447-1,1v1C55,13.553,55.447,14,56,14z"/>
	<path d="M55,23c0,0.553,0.447,1,1,1s1-0.447,1-1v-1c0-0.553-0.447-1-1-1s-1,0.447-1,1V23z"/>
	<path d="M56,51c-0.553,0-1,0.447-1,1h-1.318L45,29.811V23h-8v3H23v-3h-8v6.811L6.317,52H5c0-0.553-0.447-1-1-1s-1,0.447-1,1H0v8h8
		v-3h44v3h8v-8h-3C57,51.447,56.553,51,56,51z M39,25h4v4h-4v-3V25z M17,25h4v1v3h-4V25z M6,58H2v-4h4v3V58z M8,55v-1.812L16.683,31
		H23v-3h14v3h6.317L52,53.188V55H8z M58,54v4h-4v-1v-3H58z"/>
	<path d="M55,18c0,0.553,0.447,1,1,1s1-0.447,1-1v-1c0-0.553-0.447-1-1-1s-1,0.447-1,1V18z"/>
	<path d="M55,28c0,0.553,0.447,1,1,1s1-0.447,1-1v-1c0-0.553-0.447-1-1-1s-1,0.447-1,1V28z"/>
	<path d="M55,38c0,0.553,0.447,1,1,1s1-0.447,1-1v-1c0-0.553-0.447-1-1-1s-1,0.447-1,1V38z"/>
	<path d="M55,48c0,0.553,0.447,1,1,1s1-0.447,1-1v-1c0-0.553-0.447-1-1-1s-1,0.447-1,1V48z"/>
	<path d="M55,43c0,0.553,0.447,1,1,1s1-0.447,1-1v-1c0-0.553-0.447-1-1-1s-1,0.447-1,1V43z"/>
	<path d="M55,33c0,0.553,0.447,1,1,1s1-0.447,1-1v-1c0-0.553-0.447-1-1-1s-1,0.447-1,1V33z"/>
</g>
<g>
</g>
<g>
</g>
<g>
</g>
<g>
</g>
<g>
</g>
<g>
</g>
<g>
</g>
<g>
</g>
<g>
</g>
<g>
</g>
<g>
</g>
<g>
</g>
<g>
</g>
<g>
</g>
<g>
</g>
</svg>
