<?xml version="1.0" encoding="UTF-8" standalone="no"?>
<!DOCTYPE svg PUBLIC "-//W3C//DTD SVG 1.1//EN" "http://www.w3.org/Graphics/SVG/1.1/DTD/svg11.dtd">
<svg width="100%" height="100%" viewBox="0 0 60 60" version="1.1" xmlns="http://www.w3.org/2000/svg" xmlns:xlink="http://www.w3.org/1999/xlink" xml:space="preserve" style="fill-rule:evenodd;clip-rule:evenodd;stroke-linecap:round;stroke-linejoin:round;stroke-miterlimit:1.5;">
    <g transform="matrix(1,0,0,1,-64,0)">
        <g id="polygon-selection" transform="matrix(1,0,0,1,64,0)">
            <rect x="0" y="0" width="60" height="60" style="fill:none;"/>
            <g transform="matrix(1,0,0,1,-64,0)">
                <path d="M65,19L84,59L113,49.5L119,1L93,27L65,19Z" style="fill:none;stroke:black;stroke-width:2px;stroke-dasharray:1,4,0,0;"/>
            </g>
            <g>
                <g transform="matrix(1.45455,0,0,1.71429,27.9091,-37.8571)">
                    <ellipse cx="14.5" cy="49.5" rx="5.5" ry="3.5" style="fill:none;stroke:black;stroke-width:1.26px;"/>
                </g>
                <g transform="matrix(1,0,0,1,41,6)">
                    <path d="M14,45C15.62,47.036 15.4,50.141 14,52" style="fill:none;stroke:black;stroke-width:2px;"/>
                </g>
            </g>
        </g>
    </g>
</svg>
